<svg width="262" height="57" viewBox="0 0 262 57" fill="none" xmlns="http://www.w3.org/2000/svg">
<path d="M97.0603 20.6486C97.0603 25.6348 93.0652 29.8169 88.1113 29.8169H79.6418V41.5587H74.8477V11.4803H87.9515C93.0652 11.4803 97.0603 15.6624 97.0603 20.6486ZM93.0652 20.6486C93.0652 17.9142 90.9878 15.3407 88.2711 15.3407H79.6418V25.7957H88.2711C90.9878 25.9565 93.0652 23.383 93.0652 20.6486Z" fill="white"/>
<path d="M121.99 41.5588L120.072 35.7683H104.731L102.813 41.5588H97.8593L109.525 11.4805H115.278L126.943 41.5588H121.99ZM106.009 32.3905H118.953L112.401 15.0191L106.009 32.3905Z" fill="white"/>
<path d="M151.713 11.4805L141.166 29.1736V41.3979H136.532V29.1736L125.985 11.4805H131.258L138.929 25.4741L146.599 11.4805H151.713Z" fill="white"/>
<path d="M161.141 11.4805V41.5588H156.347V11.4805H161.141Z" fill="white"/>
<path d="M190.864 11.4805C190.864 11.4805 190.864 14.3757 190.864 15.3408H181.756V41.3979H176.962V15.5016C171.848 15.5016 167.373 15.5016 167.373 15.5016V11.6413H190.864V11.4805Z" fill="white"/>
<path d="M219.789 33.1948C219.789 38.0201 216.113 41.5588 211.319 41.5588H196.298C196.298 41.5588 196.298 12.1239 196.298 11.4805H210.84C215.634 11.4805 219.149 14.3757 219.149 19.0403C219.149 22.2572 217.392 24.6699 214.835 25.7958C217.871 26.7609 219.789 29.3344 219.789 33.1948ZM200.612 15.1799V24.3482H210.041C212.598 24.3482 214.515 22.0963 214.515 19.6836C214.515 17.2709 212.757 15.1799 210.201 15.1799H200.612ZM215.474 33.0339C215.474 30.4604 213.077 27.8868 210.52 27.8868H200.772V37.8593H210.68C213.237 37.8593 215.474 35.6075 215.474 33.0339Z" fill="white"/>
<path d="M231.934 11.4805V41.5588H227.14V11.4805H231.934Z" fill="white"/>
<path d="M261.657 11.4805C261.657 11.4805 261.657 14.3757 261.657 15.3408H252.548V41.3979H247.754V15.5016C242.64 15.5016 238.166 15.5016 238.166 15.5016V11.6413H261.657V11.4805Z" fill="white"/>
<path d="M26.8541 3.08108V8.68304V9.52334V11.7641C27.2715 11.7641 27.828 11.7641 28.3846 11.7641C35.0633 11.7641 40.7681 15.6855 43.4117 21.4275L46.1945 20.027C43.1335 13.7248 37.0113 9.24324 29.776 8.68304V3.08108C39.0984 3.64128 47.1685 9.24324 51.0645 17.3661L53.8473 15.9656C49.1165 6.44226 39.5158 0 28.3846 0C21.9841 0 16.1403 2.10074 11.4095 5.74201L13.6357 7.9828C17.3925 5.18182 21.845 3.50123 26.8541 3.08108Z" fill="white"/>
<path d="M54.9604 18.7665L53.8473 19.3267L47.1685 22.8279L44.3857 24.3685L42.9943 25.0687H42.8552L36.8722 23.108C32.2805 21.5675 27.6889 20.027 22.9581 18.4864C21.5667 18.0663 20.1753 17.5061 18.6448 17.0859L16.836 16.5257C18.7839 14.7051 21.1493 13.3046 23.793 12.6044V9.10313C20.4536 9.94342 17.3925 11.484 14.888 13.7247L11.1312 9.94342L9.04411 7.70264C3.47851 12.8845 0 20.3071 0 28.4299C0 39.2137 5.98303 48.737 14.888 53.4987L16.4185 50.8378C9.18325 46.9164 4.03507 39.6338 3.20022 30.9508L8.76583 31.0908C9.73981 38.6535 15.0271 44.8157 21.9842 47.1965L18.7839 52.7985L17.6708 54.8992C21.0102 56.2997 24.6278 56.9999 28.3846 56.9999C35.2025 56.9999 41.4638 54.479 46.3337 50.4176L29.6369 33.3316L25.6018 40.4741L18.6448 20.167C19.7579 20.5872 20.871 21.0073 21.9842 21.2874C26.5758 22.8279 31.1674 24.3685 35.8982 25.909L39.2375 27.0294L32.2805 30.8107L43.1335 41.5945C43.69 40.8943 44.2466 40.3341 44.664 39.4938C46.612 36.5528 47.8642 33.0515 48.0034 29.2702C48.0034 28.1498 48.0034 27.0294 47.8642 25.909L53.0124 23.2481C53.4298 24.9287 53.569 26.6093 53.569 28.4299C53.569 34.0319 51.7602 39.3537 48.5599 43.5552C48.0034 44.2555 47.4468 44.9557 46.8903 45.5159L49.1165 47.7567C53.7081 42.7149 56.6301 35.8525 56.6301 28.4299C56.6301 25.0687 56.0735 21.8476 54.9604 18.7665ZM28.3846 48.3169C30.6108 48.3169 32.8371 47.8967 34.7851 47.1965L32.2805 44.6756C31.0283 44.9557 29.6369 45.2358 28.2455 45.2358C27.6889 45.2358 27.1323 45.2358 26.7149 45.0957L30.6108 38.3734L41.8812 49.8574C37.9853 52.3783 33.3937 53.7788 28.3846 53.7788C26.2975 53.7788 24.2104 53.4987 22.2624 53.0786L25.1844 48.0368C26.1584 48.3169 27.2715 48.3169 28.3846 48.3169ZM23.6538 44.3955L23.5147 44.5356C16.6968 42.4348 11.6878 36.1326 11.6878 28.4299C11.6878 28.2899 11.6878 28.1498 11.6878 28.0098H5.84389H3.06108C3.20022 21.9876 5.42647 16.5257 9.04411 12.1842L12.94 16.1056C10.9921 18.6265 9.46153 21.7075 8.90497 24.9287H11.9661C12.5226 22.5478 13.4966 20.4471 14.7489 18.6265L23.6538 44.3955ZM38.681 30.9508L44.9423 27.5896C45.0814 30.9508 44.2466 34.312 42.5769 37.1129L37.1504 31.7911L38.681 30.9508Z" fill="white"/>
</svg>
